HIERARCHY
ROOT joint_Root
{
	OFFSET 0.0 0.0 0.0
	CHANNELS 6 Xposition Yposition Zposition Zrotation Xrotation Yrotation 
	JOINT Hips
	{
		OFFSET -17.1583 93.1646 452.98
		CHANNELS 6 Xposition Yposition Zposition Zrotation Xrotation Yrotation 
		JOINT Spine
		{
			OFFSET 15.7357 0.0 0.0
			CHANNELS 6 Xposition Yposition Zposition Zrotation Xrotation Yrotation 
			JOINT Chest
			{
				OFFSET 8.98455 -0.406207 0.0
				CHANNELS 6 Xposition Yposition Zposition Zrotation Xrotation Yrotation 
				JOINT Neck
				{
					OFFSET 16.3773 0.0 0.0
					CHANNELS 6 Xposition Yposition Zposition Zrotation Xrotation Yrotation 
					JOINT Head
					{
						OFFSET 6.45672 0.0 0.0
						CHANNELS 6 Xposition Yposition Zposition Zrotation Xrotation Yrotation 
						End Site
						{
							OFFSET 0.0 0.0 0.0
						}
					}
				}
				JOINT Shoulder_L
				{
					OFFSET 12.9942 -0.242716 4.98039
					CHANNELS 6 Xposition Yposition Zposition Zrotation Xrotation Yrotation 
					JOINT UpperArm_L
					{
						OFFSET 5.34809 0.0 0.0
						CHANNELS 6 Xposition Yposition Zposition Zrotation Xrotation Yrotation 
						JOINT LowerArm_L
						{
							OFFSET 24.3286 1.87007e-05 0.0
							CHANNELS 6 Xposition Yposition Zposition Zrotation Xrotation Yrotation 
							JOINT Hand_L
							{
								OFFSET 22.2916 0.0 0.0
								CHANNELS 6 Xposition Yposition Zposition Zrotation Xrotation Yrotation 
								End Site
								{
									OFFSET 0.0 0.0 0.0
								}
							}
						}
					}
				}
				JOINT Shoulder_R
				{
					OFFSET 12.9945 -0.242716 -4.98039
					CHANNELS 6 Xposition Yposition Zposition Zrotation Xrotation Yrotation 
					JOINT UpperArm_R
					{
						OFFSET -5.34813 0.0 0.0
						CHANNELS 6 Xposition Yposition Zposition Zrotation Xrotation Yrotation 
						JOINT LowerArm_R
						{
							OFFSET -24.3289 0.000322201 0.0
							CHANNELS 6 Xposition Yposition Zposition Zrotation Xrotation Yrotation 
							JOINT Hand_R
							{
								OFFSET -22.2915 -0.000108084 0.0
								CHANNELS 6 Xposition Yposition Zposition Zrotation Xrotation Yrotation 
								End Site
								{
									OFFSET 0.0 0.0 0.0
								}
							}
						}
					}
				}
			}
		}
		JOINT UpperLeg_L
		{
			OFFSET -2.19248 -6.46944 0.0
			CHANNELS 6 Xposition Yposition Zposition Zrotation Xrotation Yrotation 
			JOINT LowerLeg_L
			{
				OFFSET 39.0811 0.0 -1.23785e-05
				CHANNELS 6 Xposition Yposition Zposition Zrotation Xrotation Yrotation 
				JOINT Foot_L
				{
					OFFSET 40.9854 0.0 -1.26872e-05
					CHANNELS 6 Xposition Yposition Zposition Zrotation Xrotation Yrotation 
					JOINT Toes_L
					{
						OFFSET 11.7543 0.0 0.0
						CHANNELS 6 Xposition Yposition Zposition Zrotation Xrotation Yrotation 
						End Site
						{
							OFFSET 0.0 0.0 0.0
						}
					}
				}
			}
		}
		JOINT UpperLeg_R
		{
			OFFSET -2.19251 6.46944 0.0
			CHANNELS 6 Xposition Yposition Zposition Zrotation Xrotation Yrotation 
			JOINT LowerLeg_R
			{
				OFFSET -39.0811 -0.00228153 -0.0401928
				CHANNELS 6 Xposition Yposition Zposition Zrotation Xrotation Yrotation 
				JOINT Foot_R
				{
					OFFSET -40.9854 0.0 0.0
					CHANNELS 6 Xposition Yposition Zposition Zrotation Xrotation Yrotation 
					JOINT Toes_R
					{
						OFFSET -11.7543 0.0 0.0
						CHANNELS 6 Xposition Yposition Zposition Zrotation Xrotation Yrotation 
						End Site
						{
							OFFSET 0.0 0.0 0.0
						}
					}
				}
			}
		}
	}
}
MOTION
Frames:	9
Frame Time:	0.0333333
0.000000 0.000000 0.000000 0.000000 0.000000 -0.000000 3.002600 92.685200 6.584750 -93.506100 0.086180 169.506000 15.735700 0.000005 -0.000001 126.178000 85.061200 -127.451000 8.984550 -0.406207 -0.000000 0.278408 5.912240 -2.560510 16.377300 -0.000001 -0.000001 -1.122040 -0.387694 0.265672 6.456720 -0.000001 -0.000000 -11.772800 -2.705170 -2.351250 12.994200 -0.242716 4.980390 -92.642700 7.115540 -69.563100 5.348090 -0.000007 -0.000001 -48.227500 -27.854900 24.508300 24.328600 0.000019 0.000005 53.077300 29.697100 -69.581000 22.291600 -0.000001 0.000005 46.082700 3.978780 24.524600 12.994500 -0.242716 -4.980390 89.037100 2.858830 -71.377800 -5.348130 -0.000001 -0.000004 -69.695900 3.376690 -2.690830 -24.328900 0.000322 -0.000009 11.948400 4.504840 -69.643600 -22.291500 -0.000108 -0.000004 57.765700 5.373540 -2.095650 -2.192480 -6.469440 -0.000000 176.242000 5.394210 -43.914100 39.081100 -0.000007 -0.000012 -0.081635 0.051093 57.961100 40.985400 -0.000006 -0.000013 -2.825520 -12.112200 -65.912000 11.754300 -0.000000 0.000003 0.002487 0.084464 -13.151400 -2.192510 6.469440 -0.000001 176.748000 11.462200 -178.000000 -39.081100 -0.002282 -0.040193 0.022998 -0.043373 24.411300 -40.985400 0.000008 0.000006 -1.161510 9.201170 -50.473700 -11.754300 -0.000006 -0.000006 -0.059505 -0.330162 -30.206100
0.000000 0.000000 0.000000 0.000000 0.000000 -0.000000 3.180920 94.474300 -3.100840 -91.817100 -0.107778 169.835000 15.735700 0.000005 -0.000001 134.140000 84.736300 -135.001000 8.984550 -0.406207 -0.000000 -0.150376 7.389140 -1.713840 16.377300 -0.000001 -0.000001 -0.311249 -0.812274 0.411271 6.456720 -0.000001 -0.000000 -11.202400 -4.173830 -2.662280 12.994200 -0.242716 4.980390 -92.529000 6.572800 -68.899900 5.348090 -0.000007 -0.000001 -44.818500 -28.089700 26.653800 24.328600 0.000019 0.000005 53.470900 29.544000 -69.934900 22.291600 -0.000001 0.000005 45.176900 3.966360 24.702000 12.994500 -0.242716 -4.980390 89.197800 2.388260 -71.426600 -5.348130 -0.000001 -0.000004 -69.257200 3.438400 -3.254580 -24.328900 0.000322 -0.000009 10.056700 3.317890 -71.930300 -22.291500 -0.000108 -0.000004 55.953200 5.354500 -1.510710 -2.192480 -6.469440 -0.000000 179.661000 7.360610 -39.638600 39.081100 -0.000007 -0.000012 -0.018546 0.023561 38.210700 40.985400 -0.000006 -0.000013 -4.169280 -4.411680 -66.906500 11.754300 -0.000000 0.000003 0.002468 0.091187 -12.878800 -2.192510 6.469440 -0.000001 179.690000 6.009120 -173.184000 -39.081100 -0.002282 -0.040193 0.009002 -0.015586 20.026300 -40.985400 0.000008 0.000006 0.961322 5.597960 -34.250500 -11.754300 -0.000006 -0.000006 0.001258 0.024868 -15.564400
0.000000 0.000000 0.000000 0.000000 0.000000 -0.000000 3.598600 94.805300 -13.195300 -88.541300 -0.099189 171.774000 15.735700 0.000005 -0.000001 134.821000 84.300300 -134.522000 8.984550 -0.406207 -0.000000 0.307138 8.013540 0.576236 16.377300 -0.000001 -0.000001 0.325917 -0.612396 0.461667 6.456720 -0.000001 -0.000000 -10.711500 -4.387950 -3.018250 12.994200 -0.242716 4.980390 -92.554300 6.427080 -68.271400 5.348090 -0.000007 -0.000001 -42.943500 -28.482400 28.869500 24.328600 0.000019 0.000005 53.421300 29.320300 -70.029100 22.291600 -0.000001 0.000005 45.556400 3.928100 25.238500 12.994500 -0.242716 -4.980390 89.267500 2.169460 -71.339200 -5.348130 -0.000001 -0.000004 -68.909500 3.415520 -4.065440 -24.328900 0.000322 -0.000009 9.815110 3.207510 -72.080900 -22.291500 -0.000108 -0.000004 55.634200 5.360680 -1.699310 -2.192480 -6.469440 -0.000000 -176.629000 6.346110 -33.161000 39.081100 -0.000007 -0.000012 -0.019141 0.049651 21.081600 40.985400 -0.000006 -0.000013 -7.335260 4.433320 -69.840800 11.754300 -0.000000 0.000003 0.002469 0.091075 -12.883300 -2.192510 6.469440 -0.000001 -175.201000 1.351320 -170.576000 -39.081100 -0.002282 -0.040193 -0.013548 0.037317 24.314800 -40.985400 0.000008 0.000006 -1.105280 -3.228550 -23.941300 -11.754300 -0.000006 -0.000006 -0.001680 0.192308 -8.771580
0.000000 0.000000 0.000000 0.000000 0.000000 -0.000000 3.695630 94.233400 -23.157500 -87.354000 0.180220 172.831000 15.735700 0.000005 -0.000001 133.531000 84.197200 -132.831000 8.984550 -0.406207 -0.000000 0.609995 7.946890 1.359020 16.377300 -0.000001 -0.000001 0.357405 -0.523142 0.653882 6.456720 -0.000001 -0.000000 -9.713320 -4.120030 -2.608730 12.994200 -0.242716 4.980390 -92.586200 6.500080 -68.248000 5.348090 -0.000007 -0.000001 -43.707500 -28.337400 29.298400 24.328600 0.000019 0.000005 51.972600 29.244300 -69.090000 22.291600 -0.000001 0.000005 45.148100 3.902500 25.595400 12.994500 -0.242716 -4.980390 89.371500 1.893490 -71.635000 -5.348130 -0.000001 -0.000004 -69.632100 2.757880 -3.343810 -24.328900 0.000322 -0.000009 9.939310 3.592000 -70.329000 -22.291500 -0.000108 -0.000004 56.587200 5.368200 -1.931080 -2.192480 -6.469440 -0.000000 -175.420000 6.189950 -29.187300 39.081100 -0.000007 -0.000012 -0.017875 0.082818 12.179500 40.985400 -0.000006 -0.000013 -8.899640 6.718710 -72.548000 11.754300 -0.000000 0.000003 0.002440 0.095322 -12.711200 -2.192510 6.469440 -0.000001 -175.603000 5.477980 -171.242000 -39.081100 -0.002282 -0.040193 0.032063 -0.040150 35.627300 -40.985400 0.000008 0.000006 -0.768847 -4.648850 -28.463600 -11.754300 -0.000006 -0.000006 -0.001683 0.192350 -8.769890
0.000000 0.000000 0.000000 0.000000 0.000000 -0.000000 3.751560 92.736900 -33.257400 -87.347500 -0.664102 175.012000 15.735700 0.000005 -0.000001 123.817000 83.905300 -123.079000 8.984550 -0.406207 -0.000000 2.333450 6.743720 1.337630 16.377300 -0.000001 -0.000001 0.108699 -0.488651 0.884891 6.456720 -0.000001 -0.000000 -9.884600 -3.496520 -2.006250 12.994200 -0.242716 4.980390 -92.680200 6.940470 -68.823700 5.348090 -0.000007 -0.000001 -47.524200 -27.898900 26.346400 24.328600 0.000019 0.000005 49.486400 29.666100 -67.074600 22.291600 -0.000001 0.000005 43.921200 3.935290 25.135000 12.994500 -0.242716 -4.980390 89.399700 1.811030 -71.658500 -5.348130 -0.000001 -0.000004 -70.342600 2.614640 -1.615610 -24.328900 0.000322 -0.000009 9.163440 4.062490 -66.294200 -22.291500 -0.000108 -0.000004 56.394300 5.385900 -2.484530 -2.192480 -6.469440 -0.000000 -177.284000 4.509310 -26.367300 39.081100 -0.000007 -0.000012 -0.020112 0.076943 14.648600 40.985400 -0.000006 -0.000013 -7.910540 5.791990 -75.227800 11.754300 -0.000000 0.000003 0.002318 0.105710 -12.290000 -2.192510 6.469440 -0.000001 -177.165000 9.479860 -172.897000 -39.081100 -0.002282 -0.040193 0.130247 -0.113693 48.162800 -40.985400 0.000008 0.000006 1.126420 -10.007100 -29.918900 -11.754300 -0.000006 -0.000006 -0.001621 0.191534 -8.803070
0.000000 0.000000 0.000000 0.000000 0.000000 -0.000000 3.426600 90.328300 -42.603800 -89.247900 -1.408280 175.518000 15.735700 0.000005 -0.000001 112.106000 84.022900 -112.039000 8.984550 -0.406207 -0.000000 3.315540 4.490850 0.004187 16.377300 -0.000001 -0.000001 0.124117 -0.137825 1.352000 6.456720 -0.000001 -0.000000 -11.140000 -1.943890 -1.872630 12.994200 -0.242716 4.980390 -93.085500 8.341280 -69.615100 5.348090 -0.000007 -0.000001 -51.908500 -27.783900 21.979100 24.328600 0.000019 0.000005 46.792800 28.461100 -65.885200 22.291600 -0.000001 0.000005 43.386100 3.964180 24.732900 12.994500 -0.242716 -4.980390 89.159500 2.508340 -71.468700 -5.348130 -0.000001 -0.000004 -69.708300 3.329580 0.337953 -24.328900 0.000322 -0.000009 9.781460 5.851600 -59.420000 -22.291500 -0.000108 -0.000004 56.147700 5.433690 -4.071280 -2.192480 -6.469440 -0.000000 177.586000 2.133980 -30.799500 39.081100 -0.000007 -0.000012 0.314418 -0.536288 30.383100 40.985400 -0.000006 -0.000013 3.250080 5.074960 -71.139700 11.754300 -0.000000 0.000003 0.002442 0.095172 -12.717200 -2.192510 6.469440 -0.000001 179.859000 12.085700 179.922000 -39.081100 -0.002282 -0.040193 0.244788 -0.116319 64.293100 -40.985400 0.000008 0.000006 2.518290 -15.718600 -33.335300 -11.754300 -0.000006 -0.000006 -0.001479 0.189667 -8.878970
0.000000 0.000000 0.000000 0.000000 0.000000 -0.000000 2.929790 87.369700 -51.535500 -90.652700 -0.985922 176.967000 15.735700 0.000005 -0.000001 99.160400 83.575100 -99.659700 8.984550 -0.406207 -0.000000 4.931480 2.053960 -1.086010 16.377300 -0.000001 -0.000001 -0.940393 0.729591 1.403810 6.456720 -0.000001 -0.000000 -11.930500 0.101815 -1.186810 12.994200 -0.242716 4.980390 -93.664500 10.314600 -70.317300 5.348090 -0.000007 -0.000001 -56.497900 -28.557600 15.902300 24.328600 0.000019 0.000005 47.498400 26.454700 -67.793300 22.291600 -0.000001 0.000005 44.414300 3.858510 26.195000 12.994500 -0.242716 -4.980390 88.878000 3.476000 -72.097900 -5.348130 -0.000001 -0.000004 -68.697200 1.457650 3.289470 -24.328900 0.000322 -0.000009 10.235200 8.420220 -50.958400 -22.291500 -0.000108 -0.000004 57.423200 5.474160 -5.519950 -2.192480 -6.469440 -0.000000 175.336000 1.385890 -32.469900 39.081100 -0.000007 -0.000012 0.641354 -0.630256 45.501700 40.985400 -0.000006 -0.000013 6.168120 5.291230 -72.133900 11.754300 -0.000000 0.000003 -0.002443 0.201756 -8.390800 -2.192510 6.469440 -0.000001 178.040000 11.365600 170.553000 -39.081100 -0.002282 -0.040193 0.269763 -0.044711 80.491100 -40.985400 0.000008 0.000006 1.690800 -17.183600 -35.141300 -11.754300 -0.000006 -0.000006 -0.001450 0.189268 -8.895170
0.000000 0.000000 0.000000 0.000000 0.000000 -0.000000 2.757980 84.985300 -60.408800 -91.000900 -1.724290 179.142000 15.735700 0.000005 -0.000001 88.257200 82.361500 -88.771100 8.984550 -0.406207 -0.000000 7.502150 -0.461644 -0.996379 16.377300 -0.000001 -0.000001 -2.655010 1.096610 0.970483 6.456720 -0.000001 -0.000000 -13.032800 1.886010 -0.639176 12.994200 -0.242716 4.980390 -93.579000 10.848200 -71.618000 5.348090 -0.000007 -0.000001 -64.185600 -26.807900 6.484600 24.328600 0.000019 0.000005 48.683000 22.922200 -71.097800 22.291600 -0.000001 0.000005 44.539100 3.810570 26.851700 12.994500 -0.242716 -4.980390 88.832100 3.516590 -71.616300 -5.348130 -0.000001 -0.000004 -67.639900 -1.902120 6.434920 -24.328900 0.000322 -0.000009 6.928940 7.680530 -42.269400 -22.291500 -0.000108 -0.000004 56.953200 5.469380 -5.342650 -2.192480 -6.469440 -0.000000 174.699000 1.372160 -28.199000 39.081100 -0.000007 -0.000012 0.926384 -0.654679 54.753800 40.985400 -0.000006 -0.000013 7.505000 4.748960 -82.879100 11.754300 -0.000000 0.000003 -0.003962 0.218675 -7.702150 -2.192510 6.469440 -0.000001 178.437000 10.114400 161.242000 -39.081100 -0.002282 -0.040193 0.121794 0.005032 92.473700 -40.985400 0.000008 0.000006 1.545400 -12.369600 -38.524600 -11.754300 -0.000006 -0.000006 -0.001542 0.190493 -8.845390
0.000000 0.000000 0.000000 0.000000 0.000000 -0.000000 2.832760 84.473900 -69.515700 -90.669400 -1.627550 -179.814000 15.735700 0.000005 -0.000001 78.574200 81.722800 -78.930000 8.984550 -0.406207 -0.000000 8.460450 -3.266080 -0.469355 16.377300 -0.000001 -0.000001 -2.922030 2.235290 0.121908 6.456720 -0.000001 -0.000000 -12.871400 4.382580 -0.082917 12.994200 -0.242716 4.980390 -93.098900 9.971110 -72.637200 5.348090 -0.000007 -0.000001 -68.345900 -21.884300 0.156711 24.328600 0.000019 0.000005 54.691500 18.661100 -77.225600 22.291600 -0.000001 0.000005 43.184600 3.823600 26.679300 12.994500 -0.242716 -4.980390 88.747200 3.629380 -70.942300 -5.348130 -0.000001 -0.000004 -65.749800 -4.437900 10.961800 -24.328900 0.000322 -0.000009 6.663580 8.491070 -38.359300 -22.291500 -0.000108 -0.000004 55.842300 5.458250 -4.939260 -2.192480 -6.469440 -0.000000 175.460000 0.175106 -19.778600 39.081100 -0.000007 -0.000012 0.853470 -0.607324 54.566900 40.985400 -0.000006 -0.000013 7.098790 5.726420 -89.611000 11.754300 -0.000000 0.000003 -0.002429 0.201599 -8.397170 -2.192510 6.469440 -0.000001 -179.942000 7.097060 152.183000 -39.081100 -0.002282 -0.040193 -0.069755 -0.009456 97.304500 -40.985400 0.000008 0.000006 0.785000 -8.941120 -44.281100 -11.754300 -0.000006 -0.000006 -0.001048 0.183760 -9.119060
